<?xml version="1.0" encoding="UTF-8"?>
<!-- Created with Inkscape (http://www.inkscape.org/) -->
<svg width="20.278mm" height="9.4721mm" version="1.1" viewBox="0 0 20.277666 9.4720831" xmlns="http://www.w3.org/2000/svg" xmlns:cc="http://creativecommons.org/ns#" xmlns:dc="http://purl.org/dc/elements/1.1/" xmlns:rdf="http://www.w3.org/1999/02/22-rdf-syntax-ns#">
 <metadata>
  <rdf:RDF>
   <cc:Work rdf:about="">
    <dc:format>image/svg+xml</dc:format>
    <dc:type rdf:resource="http://purl.org/dc/dcmitype/StillImage"/>
    <dc:title/>
   </cc:Work>
  </rdf:RDF>
 </metadata>
 <g transform="translate(-125.93 -186.43)">
  <g transform="matrix(.26458 0 0 .26458 115.33 157.67)" fill="#fdfd00" stroke-width="1px" aria-label="注意">
   <path d="m41.907 112.31 1.76-2.12q3.64 2.76 6.44 5.4l-1.8 2.12q-3-2.8-6.4-5.4zm5.2 14.56q-3.16-3.04-7.04-5.92l1.76-2.12q3.76 2.8 7.08 5.92zm3 4.72q-2.32 7.08-6.32 12.68l-2.44-1.6q3.92-5.72 6.16-12.08zm6.64-19.72 0.88-2.64q6.04 1.32 12.32 4.16l-1.08 2.56q-5.84-2.76-12.12-4.08zm8.12 28.92h11.36v2.68h-26.2v-2.68h11.68v-10.2h-9.6v-2.6h9.6v-8.44h-11.16v-2.68h25.16v2.68h-10.84v8.44h9.28v2.6h-9.28z"/>
   <path d="m102.71 118.71q1.4-1.72 2.56-4h-13.6q1.36 2.12 2.4 4zm-14.64 8.52h20.64v-2.32h-20.64zm0 4.64h20.64v-2.56h-20.64zm-6.92-10.64v-2.52h9.64q-1.36-2.32-2.52-4h-5.96v-2.52h14.52v-3.48h3.12v3.48h14.52v2.52h-6.04q-0.84 1.88-2.32 4h9.52v2.52zm-1.04 21.24q3.16-3.04 5.04-7l2.48 1.08q-1.8 4.12-5.24 7.44zm26.44-4.52 2.88 0.44q-0.4 3.88-1.28 4.8-0.84 0.91999-4.24 1.16-1.92 0.16-5 0.16-2.92 0-5-0.12-2.8-0.16-3.48-0.91999-0.68-0.76001-0.68-3.84v-3.72h3.08v3.36q0 1.84 0.24 2.2 0.24 0.35999 1.6 0.44 1.68 0.12 4.12 0.12 2.24 0 4.08-0.12 1-0.08 1.36-0.12001 0.4 0 0.92-0.2t0.64-0.32q0.12-0.16 0.32-0.68 0.2-0.55999 0.24-1.04 0.08-0.48 0.2-1.6zm-2.6 0.4-1.76 1.96q-3.04-2.4-7-4.6l1.48-1.64h-11.72v-11.36h26.88v11.36h-14.36q3.8 2.16 6.48 4.28zm12.76 4.32-2.48 1.2q-2.32-4-5.52-7.6l2.56-1.28q3.04 3.64 5.44 7.68z"/>
  </g>
 </g>
</svg>
