<?xml version="1.0" encoding="UTF-8"?>
<!-- Created with Inkscape (http://www.inkscape.org/) -->
<svg width="78.057mm" height="8.1287mm" version="1.1" viewBox="0 0 78.057248 8.1287041" xmlns="http://www.w3.org/2000/svg" xmlns:cc="http://creativecommons.org/ns#" xmlns:dc="http://purl.org/dc/elements/1.1/" xmlns:rdf="http://www.w3.org/1999/02/22-rdf-syntax-ns#">
 <metadata>
  <rdf:RDF>
   <cc:Work rdf:about="">
    <dc:format>image/svg+xml</dc:format>
    <dc:type rdf:resource="http://purl.org/dc/dcmitype/StillImage"/>
    <dc:title/>
   </cc:Work>
  </rdf:RDF>
 </metadata>
 <g transform="translate(87.132 -320.01)">
  <g transform="matrix(.26458 0 0 .26458 -143.31 286.58)" fill="#fdfd00" stroke-width="1px" aria-label="осторожность">
   <path d="m222.36 129.41q-2.8906 0-4.5703 2.2656-1.6797 2.2461-1.6797 6.1719t1.6602 6.1914q1.6797 2.2461 4.5898 2.2461 2.8711 0 4.5508-2.2656 1.6797-2.2656 1.6797-6.1719 0-3.8867-1.6797-6.1523-1.6797-2.2852-4.5508-2.2852zm0-3.0469q4.6875 0 7.3633 3.0469 2.6758 3.0469 2.6758 8.4375 0 5.3711-2.6758 8.4375-2.6758 3.0469-7.3633 3.0469-4.707 0-7.3828-3.0469-2.6562-3.0664-2.6562-8.4375 0-5.3906 2.6562-8.4375 2.6758-3.0469 7.3828-3.0469z"/>
   <path d="m254.08 127.73v3.3594q-1.5234-0.83985-3.0664-1.25-1.5234-0.42969-3.0859-0.42969-3.4961 0-5.4297 2.2266-1.9336 2.207-1.9336 6.2109t1.9336 6.2305q1.9336 2.207 5.4297 2.207 1.5625 0 3.0859-0.41016 1.543-0.42968 3.0664-1.2695v3.3203q-1.5039 0.70313-3.125 1.0547-1.6016 0.35156-3.418 0.35156-4.9414 0-7.8516-3.1055-2.9102-3.1055-2.9102-8.3789 0-5.3516 2.9297-8.418 2.9492-3.0664 8.0664-3.0664 1.6602 0 3.2422 0.35157 1.582 0.33203 3.0664 1.0156z"/>
   <path d="m257.77 126.89h20.957v2.8711h-8.7109v19.004h-3.5352v-19.004h-8.7109z"/>
   <path d="m292.12 129.41q-2.8906 0-4.5703 2.2656-1.6797 2.2461-1.6797 6.1719t1.6602 6.1914q1.6797 2.2461 4.5898 2.2461 2.8711 0 4.5508-2.2656 1.6797-2.2656 1.6797-6.1719 0-3.8867-1.6797-6.1523-1.6797-2.2852-4.5508-2.2852zm0-3.0469q4.6875 0 7.3633 3.0469 2.6758 3.0469 2.6758 8.4375 0 5.3711-2.6758 8.4375-2.6758 3.0469-7.3633 3.0469-4.707 0-7.3828-3.0469-2.6562-3.0664-2.6562-8.4375 0-5.3906 2.6562-8.4375 2.6758-3.0469 7.3828-3.0469z"/>
   <path d="m311.58 145.49v11.602h-3.6133v-30.195h3.6133v3.3203q1.1328-1.9531 2.8516-2.8906 1.7383-0.95704 4.1406-0.95704 3.9844 0 6.4648 3.1641 2.5 3.1641 2.5 8.3203t-2.5 8.3203q-2.4805 3.1641-6.4648 3.1641-2.4023 0-4.1406-0.9375-1.7188-0.95703-2.8516-2.9102zm12.227-7.6367q0-3.9648-1.6406-6.2109-1.6211-2.2656-4.4727-2.2656-2.8516 0-4.4922 2.2656-1.6211 2.2461-1.6211 6.2109t1.6211 6.2305q1.6406 2.2461 4.4922 2.2461 2.8516 0 4.4727-2.2461 1.6406-2.2656 1.6406-6.2305z"/>
   <path d="m341.97 129.41q-2.8906 0-4.5703 2.2656-1.6797 2.2461-1.6797 6.1719t1.6602 6.1914q1.6797 2.2461 4.5898 2.2461 2.8711 0 4.5508-2.2656 1.6797-2.2656 1.6797-6.1719 0-3.8867-1.6797-6.1523-1.6797-2.2852-4.5508-2.2852zm0-3.0469q4.6875 0 7.3633 3.0469 2.6758 3.0469 2.6758 8.4375 0 5.3711-2.6758 8.4375-2.6758 3.0469-7.3633 3.0469-4.707 0-7.3828-3.0469-2.6562-3.0664-2.6562-8.4375 0-5.3906 2.6562-8.4375 2.6758-3.0469 7.3828-3.0469z"/>
   <path d="m370.4 126.89h3.5742v10.273l9.5508-10.273h4.1797l-7.8516 8.418 8.9844 13.457h-3.8477l-7.3633-11.055-3.6523 3.9258v7.1289h-3.5742v-7.1289l-3.6524-3.9258-7.3633 11.055h-3.8476l8.9844-13.457-7.8516-8.418h4.1797l9.5508 10.273z"/>
   <path d="m393.82 126.89h3.6133v8.9258h11.66v-8.9258h3.6133v21.875h-3.6133v-10.078h-11.66v10.078h-3.6133z"/>
   <path d="m428.61 129.41q-2.8906 0-4.5703 2.2656-1.6797 2.2461-1.6797 6.1719t1.6602 6.1914q1.6797 2.2461 4.5898 2.2461 2.8711 0 4.5508-2.2656 1.6797-2.2656 1.6797-6.1719 0-3.8867-1.6797-6.1523-1.6797-2.2852-4.5508-2.2852zm0-3.0469q4.6875 0 7.3633 3.0469 2.6758 3.0469 2.6758 8.4375 0 5.3711-2.6758 8.4375-2.6758 3.0469-7.3633 3.0469-4.707 0-7.3828-3.0469-2.6562-3.0664-2.6562-8.4375 0-5.3906 2.6562-8.4375 2.6758-3.0469 7.3828-3.0469z"/>
   <path d="m460.33 127.73v3.3594q-1.5234-0.83985-3.0664-1.25-1.5234-0.42969-3.0859-0.42969-3.4961 0-5.4297 2.2266-1.9336 2.207-1.9336 6.2109t1.9336 6.2305q1.9336 2.207 5.4297 2.207 1.5625 0 3.0859-0.41016 1.543-0.42968 3.0664-1.2695v3.3203q-1.5039 0.70313-3.125 1.0547-1.6016 0.35156-3.418 0.35156-4.9414 0-7.8516-3.1055-2.9102-3.1055-2.9102-8.3789 0-5.3516 2.9297-8.418 2.9492-3.0664 8.0664-3.0664 1.6602 0 3.2422 0.35157 1.582 0.33203 3.0664 1.0156z"/>
   <path d="m464.02 126.89h20.957v2.8711h-8.7109v19.004h-3.5352v-19.004h-8.7109z"/>
   <path d="m503.51 142.28q0-1.7578-1.2891-2.6758-1.2695-0.91797-3.7305-0.91797h-5.1172v7.207h5.1172q2.4609 0 3.7305-0.91796 1.2891-0.9375 1.2891-2.6953zm-13.75-15.391h3.6133v8.9258h5.2734q4.1797 0 6.4258 1.6016 2.2656 1.582 2.2656 4.8633t-2.2656 4.8828q-2.2461 1.6016-6.4258 1.6016h-8.8867z"/>
  </g>
 </g>
</svg>
