<?xml version="1.0" encoding="UTF-8"?>
<!-- Created with Inkscape (http://www.inkscape.org/) -->
<svg width="51.992mm" height="5.715mm" version="1.1" viewBox="0 0 51.992277 5.7150002" xmlns="http://www.w3.org/2000/svg" xmlns:cc="http://creativecommons.org/ns#" xmlns:dc="http://purl.org/dc/elements/1.1/" xmlns:rdf="http://www.w3.org/1999/02/22-rdf-syntax-ns#">
 <metadata>
  <rdf:RDF>
   <cc:Work rdf:about="">
    <dc:format>image/svg+xml</dc:format>
    <dc:type rdf:resource="http://purl.org/dc/dcmitype/StillImage"/>
    <dc:title/>
   </cc:Work>
  </rdf:RDF>
 </metadata>
 <g transform="translate(128.25 -252.71)">
  <g transform="matrix(.26458 0 0 .26458 -185.87 231.79)" fill="#f00" stroke-width="1px" aria-label="опасность">
   <path d="m232.53 83.69q-1.8-2.24-4.96-2.24t-5 2.24q-1.8 2.2-1.8 6.16t1.8 6.2q1.84 2.2 5 2.2t4.96-2.2q1.84-2.24 1.84-6.2t-1.84-6.16zm2.16 14.04q-2.68 2.92-7.12 2.92t-7.12-2.92q-2.68-2.92-2.68-7.88t2.68-7.88 7.12-2.92 7.12 2.92 2.68 7.88-2.68 7.88z"/>
   <path d="m241.98 79.45h17.6v20.8h-2.92v-18.32h-11.76v18.32h-2.92z"/>
   <path d="m273.18 79.05q4.36 0 6.24 1.8 1.88 1.8 1.88 5.92v7.88q0 2.84 0.59999 5.6h-2.8q-0.4-1.76-0.44-3.68h-0.08q-1.08 1.92-3.12 3-2 1.08-4.56 1.08-2.88 0-4.6-1.6-1.72-1.64-1.72-4.4 0-3.48 3-5.52 3.04-2.08 8.64-2.08h2.16v-0.2q0-3.04-1.16-4.2-1.12-1.2-4.04-1.2-3.76 0-7 1.84l-0.56-2.36q3.44-1.88 7.56-1.88zm-5.72 15.48q0 1.8 1.12 2.84 1.12 1 3 1 2.76 0 4.76-1.96 2.04-2 2.04-4.88v-2.24h-2.16q-4.2 0-6.48 1.44-2.28 1.4-2.28 3.8z"/>
   <path d="m296.65 81.49q-3.52 0-5.52 2.2-1.96 2.16-1.96 6.16 0 3.84 2.08 6.12t5.4 2.28q2.8 0 5.36-1.36l0.76 2.36q-3 1.4-6.24 1.4-4.64 0-7.52-2.92-2.88-2.96-2.88-7.88 0-5.08 2.76-7.92 2.76-2.88 7.64-2.88 3.24 0 6.24 1.4l-0.76 2.44q-2.68-1.4-5.36-1.4z"/>
   <path d="m311.47 90.25v10h-3.08v-20.8h3.08v8.48h11.84v-8.48h3.08v20.8h-3.08v-10z"/>
   <path d="m345.74 83.69q-1.8-2.24-4.96-2.24t-5 2.24q-1.8 2.2-1.8 6.16t1.8 6.2q1.84 2.2 5 2.2t4.96-2.2q1.84-2.24 1.84-6.2t-1.84-6.16zm2.16 14.04q-2.68 2.92-7.12 2.92t-7.12-2.92q-2.68-2.92-2.68-7.88t2.68-7.88 7.12-2.92 7.12 2.92 2.68 7.88-2.68 7.88z"/>
   <path d="m364.31 81.49q-3.52 0-5.52 2.2-1.96 2.16-1.96 6.16 0 3.84 2.08 6.12t5.4 2.28q2.8 0 5.36-1.36l0.76 2.36q-3 1.4-6.24 1.4-4.64 0-7.52-2.92-2.88-2.96-2.88-7.88 0-5.08 2.76-7.92 2.76-2.88 7.64-2.88 3.24 0 6.24 1.4l-0.76 2.44q-2.68-1.4-5.36-1.4z"/>
   <path d="m393.25 81.89h-7.6v18.36h-3.2v-18.36h-7.6v-2.44h18.4z"/>
   <path d="m411.4 92.85q0-4.6-7.12-4.6h-3.28v9.6h3.28q3.92 0 5.52-1.32 1.6-1.32 1.6-3.68zm-10.4-7h3.28q10 0 10 7 0 3.72-2.48 5.56-2.44 1.84-7.88 1.84h-5.84v-20.8h2.92z"/>
  </g>
 </g>
</svg>
