<?xml version="1.0" encoding="UTF-8"?>
<!-- Created with Inkscape (http://www.inkscape.org/) -->
<svg width="20.256mm" height="9.4827mm" version="1.1" viewBox="0 0 20.256498 9.482667" xmlns="http://www.w3.org/2000/svg" xmlns:cc="http://creativecommons.org/ns#" xmlns:dc="http://purl.org/dc/elements/1.1/" xmlns:rdf="http://www.w3.org/1999/02/22-rdf-syntax-ns#">
 <metadata>
  <rdf:RDF>
   <cc:Work rdf:about="">
    <dc:format>image/svg+xml</dc:format>
    <dc:type rdf:resource="http://purl.org/dc/dcmitype/StillImage"/>
    <dc:title/>
   </cc:Work>
  </rdf:RDF>
 </metadata>
 <g transform="translate(-166.76 -181.89)">
  <g transform="matrix(.26458 0 0 .26458 143.59 165.9)" fill="#f00" stroke-width="1px" aria-label="危険">
   <path d="m106.39 69.469q2.32-2.12 4.08-4.12h-11.76q-1.28 2.16-2.96 4.12zm8.92 8.68h-12.92v12.96q0 1.56 0.32 1.84 0.36 0.28 2.32 0.4 2.4 0.16 5 0.16 3 0 5.72-0.16 1.08-0.04 1.52-0.04 0.48-0.04 1.04-0.32 0.56-0.32 0.68-0.52 0.16-0.2 0.4-1.08 0.28-0.88 0.36-1.6t0.32-2.52l3.08 0.28q-0.2 1.84-0.4 2.92-0.16 1.04-0.36 2.08-0.16 1-0.52 1.48t-0.76 0.92q-0.36 0.44-1.12 0.56-0.72 0.16-1.44 0.24-0.72 0.12-2.04 0.2-3.72 0.2-6.76 0.2-2.48 0-5.88-0.2-3.08-0.2-3.8-0.88-0.68-0.68-0.68-3.52v-15.88h19q-0.32 5.68-0.76 8.12t-1.16 3.2q-0.72 0.72-2.32 0.72-2.08 0-6.76-0.32l-0.08-2.48q3.96 0.32 5.72 0.32 0.76 0 1.08-0.36 0.36-0.4 0.64-1.88t0.56-4.84zm-26.4-2.2-1.32-2.68q7.08-5.4 10.44-12.84l2.88 0.52q-0.36 0.96-0.84 1.92h14.08v2.48q-1.44 1.84-3.72 4.12h12.12v2.56h-27.64v4.64q0 6.24-1.2 10.84t-3.88 8.76l-2.16-2.36q2.36-3.96 3.32-8.16 0.96-4.24 0.96-10.92v-1.4q-1.24 1.12-3.04 2.52z"/>
   <path d="m144.83 68.629h12.48q-3.28-2.56-6.24-5.64-2.96 3.08-6.24 5.64zm7.6 14.04h6.88v-6.4h-6.88v6.08zm-9.68 0h6.68v-6.4h-6.68zm19.08-8.76v11.04h-8.92q1 2.72 3.84 5 2.88 2.24 7.32 3.56l-1.08 2.68q-4.2-1.36-7.32-3.72-3.08-2.4-4.56-5.32-1.6 2.88-4.92 5.24-3.28 2.32-7.96 3.8l-1.08-2.68q4.84-1.4 7.84-3.6 3-2.24 3.96-4.96h-8.68v-11.04h9.16v-2.88h-6.08v-1.32q-2.52 1.76-4.24 2.8l-0.84-1.88q-1.04 2.2-2.12 4 1.88 2.4 2.64 4.4 0.76 1.96 0.76 4.36 0 2.76-1.28 4-1.24 1.24-3.92 1.24h-1.04l-0.48-2.48h1.04q1.68 0 2.32-0.72t0.64-2.64q0-2.12-0.76-3.76-0.72-1.68-2.88-4.24 2.76-4.48 4.64-9.88h-5.84v31.28h-2.88v-33.72h11.52v2.44q-0.52 1.6-1.92 4.68 6.08-3.72 10.88-8.56h2.96q4.88 5 11.6 9l-1.12 2.48q-2.44-1.44-4.4-2.88v1.4h-6.2v2.88z"/>
  </g>
 </g>
</svg>
