<?xml version="1.0" encoding="UTF-8"?>
<!-- Created with Inkscape (http://www.inkscape.org/) -->
<svg width="20.129mm" height="9.3345mm" version="1.1" viewBox="0 0 20.129499 9.3345003" xmlns="http://www.w3.org/2000/svg" xmlns:cc="http://creativecommons.org/ns#" xmlns:dc="http://purl.org/dc/elements/1.1/" xmlns:rdf="http://www.w3.org/1999/02/22-rdf-syntax-ns#">
 <metadata>
  <rdf:RDF>
   <cc:Work rdf:about="">
    <dc:format>image/svg+xml</dc:format>
    <dc:type rdf:resource="http://purl.org/dc/dcmitype/StillImage"/>
    <dc:title/>
   </cc:Work>
  </rdf:RDF>
 </metadata>
 <g transform="translate(47.418 -281.19)">
  <g transform="matrix(.26458 0 0 .26458 -61.673 230.39)" fill="#fcf" stroke-width="1px" aria-label="事故">
   <path d="m73.158 213.94h10.24v-2.8h-10.24zm0 5.36h10.24v-2.92h-10.24zm0-14.8h9.72v-3.04h-9.72zm-13 0h9.72v-3.04h-9.72zm29 9.44v2.44h-2.76v7.32h-3v-2.12h-10.24v1.84q0 2.64-0.84 3.24-0.8 0.64-4.2 0.64-1.68 0-5.68-0.2l-0.04-2.48q4.68 0.2 5.4 0.2 1.56 0 1.8-0.16 0.28-0.16 0.28-1.04v-2.04h-14.32v-2.28h14.32v-2.92h-16v-2.44h16v-2.8h-14.32v-2.36h14.32v-2.16h-12.72v-7.4h12.72v-2.2h-15.6v-2.4h15.6v-2.6h3.28v2.6h15.6v2.4h-15.6v2.2h12.72v7.4h-12.72v2.16h13.24v5.16z"/>
   <path d="m97.998 221.9h8.88v-10.48h-8.88zm20.4-4.08q-3.08-4.76-4.4-12.64-1.2 2.68-3.08 5.84l-1.24-0.92v13.72q5.64-2.72 8.72-6zm1.88-2.4q3.36-5.08 4.16-15h-8.56q-0.32 0.92-1.04 2.68l1.8-0.2q1 7.84 3.64 12.52zm1.68 2.56q2.8 3.64 7.96 6.68l-1.48 2.32q-5.2-3-8.36-6.8-3.64 3.64-10.56 6.8l-1.28-2.48h-10.24v2.4h-2.96v-18.16h5.76v-8.16h-7.2v-2.68h7.2v-5.72h3v5.72h7.44v2.68h-7.44v8.16h5.08q4.16-6.92 6.32-16.72l2.88 0.36q-0.44 2.12-1.36 5.36h13.24v2.68h-2.64q-0.84 11.56-5.36 17.56z"/>
  </g>
 </g>
</svg>
