<?xml version="1.0" encoding="UTF-8"?>
<!-- Created with Inkscape (http://www.inkscape.org/) -->
<svg width="37.657mm" height="8.1287mm" version="1.1" viewBox="0 0 37.656615 8.1287041" xmlns="http://www.w3.org/2000/svg" xmlns:cc="http://creativecommons.org/ns#" xmlns:dc="http://purl.org/dc/elements/1.1/" xmlns:rdf="http://www.w3.org/1999/02/22-rdf-syntax-ns#">
 <metadata>
  <rdf:RDF>
   <cc:Work rdf:about="">
    <dc:format>image/svg+xml</dc:format>
    <dc:type rdf:resource="http://purl.org/dc/dcmitype/StillImage"/>
    <dc:title/>
   </cc:Work>
  </rdf:RDF>
 </metadata>
 <g transform="translate(-16.909 -359.04)">
  <g transform="matrix(.26458 0 0 .26458 -42.527 306.09)" fill="#fcf" stroke-width="1px" aria-label="авария">
   <path d="m235.95 211.51q-4.3555 0-6.0352 0.9961-1.6797 0.99609-1.6797 3.3984 0 1.9141 1.25 3.0469 1.2695 1.1133 3.4375 1.1133 2.9883 0 4.7852-2.1094 1.8164-2.1289 1.8164-5.6445v-0.80078zm7.168-1.4844v12.48h-3.5938v-3.3203q-1.2305 1.9922-3.0664 2.9492-1.8359 0.9375-4.4922 0.9375-3.3594 0-5.3516-1.875-1.9726-1.8945-1.9726-5.0586 0-3.6914 2.4609-5.5664 2.4805-1.875 7.3828-1.875h5.0391v-0.35156q0-2.4805-1.6406-3.8281-1.6211-1.3672-4.5703-1.3672-1.875 0-3.6523 0.44922-1.7773 0.44921-3.418 1.3476v-3.3203q1.9727-0.76172 3.8281-1.1328 1.8555-0.39063 3.6133-0.39063 4.7461 0 7.0898 2.4609t2.3438 7.4609z"/>
   <path d="m253.99 212.43v7.207h5.1172q2.4609 0 3.75-0.91797 1.2891-0.9375 1.2891-2.6953t-1.2891-2.6758q-1.2891-0.91797-3.75-0.91797zm0-8.9258v6.0547h4.7266q2.0312 0 3.3203-0.80078 1.2891-0.82032 1.2891-2.2656t-1.2891-2.207q-1.2891-0.78125-3.3203-0.78125zm-3.5938-2.8711h8.5547q3.8477 0 5.918 1.4062 2.0703 1.4062 2.0703 4.0039 0 2.0117-1.0547 3.2031-1.0547 1.1719-3.125 1.4648 2.4805 0.46875 3.8476 1.9531 1.3672 1.4844 1.3672 3.7109 0 2.9297-2.2656 4.5312-2.2461 1.6016-6.4258 1.6016h-8.8867z"/>
   <path d="m284.07 211.51q-4.3555 0-6.0352 0.9961-1.6797 0.99609-1.6797 3.3984 0 1.9141 1.25 3.0469 1.2695 1.1133 3.4375 1.1133 2.9883 0 4.7852-2.1094 1.8164-2.1289 1.8164-5.6445v-0.80078zm7.168-1.4844v12.48h-3.5938v-3.3203q-1.2305 1.9922-3.0664 2.9492-1.8359 0.9375-4.4922 0.9375-3.3594 0-5.3516-1.875-1.9726-1.8945-1.9726-5.0586 0-3.6914 2.4609-5.5664 2.4805-1.875 7.3828-1.875h5.0391v-0.35156q0-2.4805-1.6406-3.8281-1.6211-1.3672-4.5703-1.3672-1.875 0-3.6523 0.44922-1.7773 0.44921-3.418 1.3476v-3.3203q1.9727-0.76172 3.8281-1.1328 1.8555-0.39063 3.6133-0.39063 4.7461 0 7.0898 2.4609t2.3438 7.4609z"/>
   <path d="m302.14 219.23v11.602h-3.6133v-30.195h3.6133v3.3203q1.1328-1.9531 2.8516-2.8906 1.7383-0.95703 4.1406-0.95703 3.9844 0 6.4648 3.1641 2.5 3.1641 2.5 8.3203t-2.5 8.3203q-2.4805 3.1641-6.4648 3.1641-2.4024 0-4.1406-0.9375-1.7188-0.95703-2.8516-2.9102zm12.227-7.6367q0-3.9648-1.6406-6.2109-1.6211-2.2656-4.4727-2.2656t-4.4922 2.2656q-1.6211 2.2461-1.6211 6.2109 0 3.9648 1.6211 6.2305 1.6406 2.2461 4.4922 2.2461t4.4727-2.2461q1.6406-2.2656 1.6406-6.2305z"/>
   <path d="m342.64 200.63v21.875h-3.5742v-17.559l-10.547 17.559h-4.6094v-21.875h3.5742v17.52l10.527-17.52z"/>
   <path d="m353.68 206.94q0 1.6211 1.25 2.5391t3.5742 0.91797h4.8438v-6.8945h-4.8438q-2.3242 0-3.5742 0.89844-1.25 0.89843-1.25 2.5391zm-5.1172 15.566 6.6797-9.5898q-2.2656-0.50781-3.7695-1.8359-1.5039-1.3476-1.5039-4.1406 0-3.1641 2.0898-4.7266 2.1094-1.582 6.3477-1.582h8.5547v21.875h-3.6133v-9.2383h-4.4727l-6.4453 9.2383z"/>
  </g>
 </g>
</svg>
