<!-- Created with Inkscape (http://www.inkscape.org/) -->
<svg xmlns:rdf="http://www.w3.org/1999/02/22-rdf-syntax-ns#" xmlns="http://www.w3.org/2000/svg" version="1.1" xmlns:cc="http://creativecommons.org/ns#" xmlns:dc="http://purl.org/dc/elements/1.1/" viewBox="0 0 297 210">
    <metadata>
        <rdf:RDF>
            <cc:Work rdf:about="">
                <dc:format>image/svg+xml</dc:format>
                <dc:type rdf:resource="http://purl.org/dc/dcmitype/StillImage"/>
                <dc:title/>
            </cc:Work>
        </rdf:RDF>
    </metadata>
    <g transform="translate(0,-87)">
        <g transform="translate(5.8612e-7 2.0586)">
            <g fill-opacity=".45771" fill="#00f100">
                <path opacity="0.292" style="color-rendering:auto;text-decoration-color:#000000;color:#000000;font-variant-numeric:normal;shape-rendering:auto;font-variant-ligatures:normal;text-decoration-line:none;font-variant-position:normal;mix-blend-mode:normal;solid-color:#000000;font-feature-settings:normal;shape-padding:0;font-variant-alternates:normal;text-indent:0;dominant-baseline:auto;font-variant-caps:normal;image-rendering:auto;white-space:normal;text-decoration-style:solid;text-orientation:mixed;isolation:auto;text-transform:none" d="m190.64 287.63-0.006-0.12695-0.1543-2.0156-0.0117-0.125-0.25195-1.9863-0.0195-0.125-0.17188-0.95703-4.9219 0.87891 0.16016 0.88672 0.23828 1.8867 0.14257 1.8828 0.0469 1.9043-0.0469 1.9082-0.0645 0.86133 4.9844 0.3789 0.0703-0.91406 0.006-0.12695 0.0527-2.043v-0.12695z"/>
                <path opacity="0.292" style="color-rendering:auto;text-decoration-color:#000000;color:#000000;font-variant-numeric:normal;shape-rendering:auto;font-variant-ligatures:normal;text-decoration-line:none;font-variant-position:normal;mix-blend-mode:normal;solid-color:#000000;font-feature-settings:normal;shape-padding:0;font-variant-alternates:normal;text-indent:0;dominant-baseline:auto;font-variant-caps:normal;image-rendering:auto;white-space:normal;text-decoration-style:solid;text-orientation:mixed;isolation:auto;text-transform:none" d="m186.55 271.5-0.0547-0.11133-0.875-1.7109-0.0586-0.10546-0.95508-1.6621-0.0625-0.10352-1.0332-1.6113-0.0664-0.0996-1.1074-1.5547-0.0723-0.0957-0.97656-1.2461-3.9316 3.0898 0.93359 1.1875 1.0527 1.4824 0.92773 1.4434 0.006 0.0117 0.91992 1.5938 0.82227 1.6055 0.28515 0.63281 4.5566-2.0586z"/>
                <path opacity="0.292" style="color-rendering:auto;text-decoration-color:#000000;color:#000000;font-variant-numeric:normal;shape-rendering:auto;font-variant-ligatures:normal;text-decoration-line:none;font-variant-position:normal;mix-blend-mode:normal;solid-color:#000000;font-feature-settings:normal;shape-padding:0;font-variant-alternates:normal;text-indent:0;dominant-baseline:auto;font-variant-caps:normal;image-rendering:auto;white-space:normal;text-decoration-style:solid;text-orientation:mixed;isolation:auto;text-transform:none" d="m172.14 254.79-0.0976-0.0664-1.6113-1.0332-0.10352-0.0625-1.6621-0.95508-0.10547-0.0586-1.7109-0.87695-0.11133-0.0527-1.7578-0.79492-0.11329-0.0469-0.51953-0.20507-1.834 4.6523 0.46289 0.18164 1.6484 0.74414 1.6055 0.82422 1.5469 0.88867 1.5293 0.98047 1.3711 0.97656 2.8984-4.0762z"/>
                <path opacity="0.292" style="color-rendering:auto;text-decoration-color:#000000;color:#000000;font-variant-numeric:normal;shape-rendering:auto;font-variant-ligatures:normal;text-decoration-line:none;font-variant-position:normal;mix-blend-mode:normal;solid-color:#000000;font-feature-settings:normal;shape-padding:0;font-variant-alternates:normal;text-indent:0;dominant-baseline:auto;font-variant-caps:normal;image-rendering:auto;white-space:normal;text-decoration-style:solid;text-orientation:mixed;isolation:auto;text-transform:none" d="m152.87 247.77-0.125-0.0137-2.0156-0.15234-0.12695-0.006-2.043-0.0527h-0.125l-2.043 0.0527-0.12695 0.006-2.0156 0.15234-0.125 0.0137-0.62304 0.0781 0.6289 4.9609 0.54688-0.0703 1.9141-0.14453 1.9062-0.0488 1.9062 0.0488 1.9141 0.14453 1.1543 0.14844 0.63086-4.9609z"/>
                <path opacity="0.292" style="color-rendering:auto;text-decoration-color:#000000;color:#000000;font-variant-numeric:normal;shape-rendering:auto;font-variant-ligatures:normal;text-decoration-line:none;font-variant-position:normal;mix-blend-mode:normal;solid-color:#000000;font-feature-settings:normal;shape-padding:0;font-variant-alternates:normal;text-indent:0;dominant-baseline:auto;font-variant-caps:normal;image-rendering:auto;white-space:normal;text-decoration-style:solid;text-orientation:mixed;isolation:auto;text-transform:none" d="m133.22 250.41-1.0898 0.42968-0.11329 0.0469-1.7578 0.79492-0.11133 0.0527-1.7109 0.87695-0.10547 0.0586-1.6621 0.95508-0.10352 0.0625-1.6113 1.0332-0.0977 0.0664-0.93555 0.66406 2.8984 4.0742 0.86914-0.61914 1.5312-0.98047 1.5469-0.88867 1.6055-0.82422 1.6524-0.74609 1.0293-0.40625z"/>
                <path opacity="0.292" style="color-rendering:auto;text-decoration-color:#000000;color:#000000;font-variant-numeric:normal;shape-rendering:auto;font-variant-ligatures:normal;text-decoration-line:none;font-variant-position:normal;mix-blend-mode:normal;solid-color:#000000;font-feature-settings:normal;shape-padding:0;font-variant-alternates:normal;text-indent:0;dominant-baseline:auto;font-variant-caps:normal;image-rendering:auto;white-space:normal;text-decoration-style:solid;text-orientation:mixed;isolation:auto;text-transform:none" d="m116.17 262.63-0.18945 0.21875-0.0762 0.0918-1.1777 1.5-0.0723 0.0957-1.1074 1.5547-0.0664 0.0996-1.0332 1.6113-0.0625 0.10352-0.95508 1.6621-0.0586 0.10546-0.875 1.7109-0.0547 0.11133-0.0566 0.12695 4.5547 2.0606 0.0332-0.0723 0.82227-1.6074 0.91992-1.5938 0.006-0.0117 0.92773-1.4434 1.0508-1.4805 1.1035-1.4004 0.14648-0.16992z"/>
                <path opacity="0.292" style="color-rendering:auto;text-decoration-color:#000000;color:#000000;font-variant-numeric:normal;shape-rendering:auto;font-variant-ligatures:normal;text-decoration-line:none;font-variant-position:normal;mix-blend-mode:normal;solid-color:#000000;font-feature-settings:normal;shape-padding:0;font-variant-alternates:normal;text-indent:0;dominant-baseline:auto;font-variant-caps:normal;image-rendering:auto;white-space:normal;text-decoration-style:solid;text-orientation:mixed;isolation:auto;text-transform:none" d="m107.09 281.69-0.2793 1.5625-0.0195 0.125-0.25195 1.9863-0.0117 0.125-0.1543 2.0156-0.006 0.12695-0.0527 2.041v0.12695l0.0527 2.043 0.006 0.12695 0.0234 0.30273 4.9863-0.38086-0.0195-0.25195-0.0469-1.9043 0.0469-1.9043 0.14257-1.8828 0.23828-1.8867 0.26758-1.4922z"/>
            </g>
            <path opacity="0.292" d="m0.75574 87.996c72.935 55.364 107.17 102.77 117.33 138.98" stroke-opacity=".45882" stroke="#00f100" stroke-dasharray="2.50000007, 30.00000084" stroke-width="2.5" fill="none"/>
            <path opacity="0.292" d="m296.24 87.996c-72.93 55.364-107.17 102.77-117.33 138.98" stroke-opacity=".45882" stroke="#00f100" stroke-dasharray="2.5000001, 30.00000116" stroke-width="2.5" fill="none"/>
        </g>
    </g>
</svg>
